<svg xmlns="http://www.w3.org/2000/svg" viewBox="0 0 20 20" fill="none"><path stroke="currentColor" stroke-linecap="round" stroke-linejoin="round" stroke-width="1.8" d="M17.5 8.333h-15m15 2.084V7.333c0-1.4 0-2.1-.273-2.635a2.5 2.5 0 0 0-1.092-1.092c-.535-.273-1.235-.273-2.635-.273h-7c-1.4 0-2.1 0-2.635.273a2.5 2.5 0 0 0-1.093 1.092C2.5 5.233 2.5 5.933 2.5 7.333v7c0 1.4 0 2.1.272 2.635a2.5 2.5 0 0 0 1.093 1.093c.535.272 1.235.272 2.635.272H10m3.333-16.666V5M6.667 1.667V5m5.416 10.833L13.75 17.5l3.75-3.75"/></svg>